<svg xmlns="http://www.w3.org/2000/svg" viewBox="0 0 24 24" width="24" height="24">
    <path fill="#ffffff" d="M12 0C5.373 0 0 5.373 0 12c0 5.302 3.438 9.8 8.205 11.385.6.111.82-.261.82-.577 0-.285-.01-1.04-.016-2.04-3.338.726-4.042-1.415-4.042-1.415-.546-1.387-1.333-1.757-1.333-1.757-1.089-.744.083-.729.083-.729 1.205.085 1.84 1.238 1.84 1.238 1.07 1.834 2.806 1.304 3.49.997.108-.774.419-1.304.762-1.604-2.665-.305-5.466-1.334-5.466-5.93 0-1.31.469-2.382 1.236-3.22-.123-.303-.536-1.523.117-3.176 0 0 1.008-.322 3.301 1.23.957-.266 1.983-.399 3.003-.404 1.02.005 2.047.138 3.003.404 2.292-1.553 3.298-1.23 3.298-1.23.654 1.653.241 2.873.119 3.176.77.838 1.235 1.91 1.235 3.22 0 4.61-2.804 5.624-5.475 5.92.43.372.823 1.104.823 2.225 0 1.607-.014 2.903-.014 3.293 0 .319.218.694.824.576C20.565 21.797 24 17.3 24 12c0-6.627-5.373-12-12-12z"/>
</svg>
